<svg xmlns="http://www.w3.org/2000/svg" viewBox="0 0 1100 680" font-family="-apple-system,system-ui,Segoe UI,sans-serif">
  <rect width="1100" height="680" fill="#080c12"/>
  <!-- MOCKUP-Banner -->
  <rect x="0" y="0" width="1100" height="22" fill="#4a90e2" opacity="0.18"/>
  <text x="550.0" y="15" fill="#4a90e2" font-size="11" text-anchor="middle" font-weight="600">SCHEMATISCHES MOCKUP — keine echte Pixel-Darstellung</text>
  <!-- Topbar -->
  <rect x="0" y="22" width="1100" height="46" fill="#111827"/>
  <circle cx="26" cy="45.0" r="9" fill="none" stroke="#6b7f99" stroke-width="1.5"/>
  <circle cx="26" cy="45.0" r="4" fill="#4a90e2"/>
  <text x="44" y="49.0" fill="#dce8f5" font-size="13" font-weight="600">Energietracker</text>
  <text x="1040" y="49.0" fill="#6b7f99" font-size="13">☾</text>
  <!-- Sidebar -->
  <rect x="0" y="68" width="210" height="612" fill="#111827"/>
  <rect x="8" y="77" width="194" height="26" rx="5" fill="#243044"/><text x="20" y="95" fill="#4a90e2" font-size="12">⌂ Übersicht</text><text x="20" y="124" fill="#6b7f99" font-size="12">🔥 Gas</text><text x="20" y="153" fill="#6b7f99" font-size="12">⚡ Strom</text><text x="20" y="182" fill="#6b7f99" font-size="12">💧 Wasser</text><text x="20" y="211" fill="#6b7f99" font-size="12">🌡 Fernwärme</text><text x="20" y="240" fill="#6b7f99" font-size="12">🛢 Heizöl</text><text x="20" y="269" fill="#6b7f99" font-size="12">🪵 Pellets</text><text x="20" y="298" fill="#6b7f99" font-size="12">📈 Analyse</text><text x="20" y="327" fill="#6b7f99" font-size="12">🔮 Prognose</text><text x="20" y="356" fill="#6b7f99" font-size="12">📊 Tarifvergleich</text><text x="20" y="385" fill="#6b7f99" font-size="12">💡 Empfehlungen</text><text x="20" y="414" fill="#6b7f99" font-size="12">📌 Termine</text><text x="20" y="443" fill="#6b7f99" font-size="12">🌡 Temperaturen</text><text x="20" y="472" fill="#6b7f99" font-size="12">⚙ Einstellungen</text>
  <!-- Content title -->
  <text x="238" y="108" fill="#dce8f5" font-size="20" font-weight="700">Übersicht (Dashboard)</text>
  <line x1="238" y1="120" x2="1072" y2="120" stroke="#4a90e2" stroke-width="1.5"/>
  <rect x="238" y="140" width="834" height="90" rx="8" fill="#111827"/><text x="254" y="164" fill="#dce8f5" font-size="13" font-weight="600">12-Monats-Kennzahlen</text><text x="254" y="170" fill="#6b7f99" font-size="10">Gas 12 M</text><text x="254" y="192" fill="#ff7b2e" font-size="18" font-weight="700">33.771 kWh</text><text x="428" y="170" fill="#6b7f99" font-size="10">Strom 12 M</text><text x="428" y="192" fill="#2de8a4" font-size="18" font-weight="700">10.470 kWh</text><text x="598" y="170" fill="#6b7f99" font-size="10">Wasser 12 M</text><text x="598" y="192" fill="#3b82f6" font-size="18" font-weight="700">393 m³</text><text x="758" y="170" fill="#6b7f99" font-size="10">Kosten 12 M</text><text x="758" y="192" fill="#dce8f5" font-size="18" font-weight="700">14.000 €</text><rect x="238" y="246" width="383.64000000000004" height="150" rx="8" fill="#111827"/><text x="254" y="270" fill="#dce8f5" font-size="13" font-weight="600">🏅 Effizienz je Heizquelle</text><text x="254" y="290" fill="#6b7f99" font-size="11">Gas D · Fernwärme C · Heizöl F · Pellets E</text><rect x="655.0" y="246" width="417.0" height="150" rx="8" fill="#111827"/><text x="671.0" y="270" fill="#dce8f5" font-size="13" font-weight="600">🛢 Tank-Bestände</text><rect x="671.0" y="290" width="385.0" height="12" rx="6" fill="#243044"/><rect x="671.0" y="290" width="239" height="12" rx="6" fill="#8b5cf6"/><rect x="238" y="412" width="834" height="150" rx="8" fill="#111827"/><text x="254" y="436" fill="#dce8f5" font-size="13" font-weight="600">12-Monats-Verbrauch (alle Arten)</text><rect x="254" y="440" width="802" height="110" rx="4" fill="#1c2636"/><polyline points="268,470 332,462 397,472 462,495 526,499 590,474 655,463 720,468 784,489 848,506 913,479 978,464 1042,465" fill="none" stroke="#4a90e2" stroke-width="2"/>
</svg>