<svg xmlns="http://www.w3.org/2000/svg" viewBox="0 0 1100 680" font-family="-apple-system,system-ui,Segoe UI,sans-serif">
  <rect width="1100" height="680" fill="#080c12"/>
  <!-- MOCKUP-Banner -->
  <rect x="0" y="0" width="1100" height="22" fill="#4a90e2" opacity="0.18"/>
  <text x="550.0" y="15" fill="#4a90e2" font-size="11" text-anchor="middle" font-weight="600">SCHEMATISCHES MOCKUP — keine echte Pixel-Darstellung</text>
  <!-- Topbar -->
  <rect x="0" y="22" width="1100" height="46" fill="#111827"/>
  <circle cx="26" cy="45.0" r="9" fill="none" stroke="#6b7f99" stroke-width="1.5"/>
  <circle cx="26" cy="45.0" r="4" fill="#4a90e2"/>
  <text x="44" y="49.0" fill="#dce8f5" font-size="13" font-weight="600">Energietracker</text>
  <text x="1040" y="49.0" fill="#6b7f99" font-size="13">☾</text>
  <!-- Sidebar -->
  <rect x="0" y="68" width="210" height="612" fill="#111827"/>
  <rect x="8" y="77" width="194" height="26" rx="5" fill="#243044"/><text x="20" y="95" fill="#4a90e2" font-size="12">⌂ Übersicht</text><text x="20" y="124" fill="#6b7f99" font-size="12">🔥 Gas</text><text x="20" y="153" fill="#6b7f99" font-size="12">⚡ Strom</text><text x="20" y="182" fill="#6b7f99" font-size="12">💧 Wasser</text><text x="20" y="211" fill="#6b7f99" font-size="12">🌡 Fernwärme</text><text x="20" y="240" fill="#6b7f99" font-size="12">🛢 Heizöl</text><text x="20" y="269" fill="#6b7f99" font-size="12">🪵 Pellets</text><text x="20" y="298" fill="#6b7f99" font-size="12">📈 Analyse</text><text x="20" y="327" fill="#6b7f99" font-size="12">🔮 Prognose</text><text x="20" y="356" fill="#6b7f99" font-size="12">📊 Tarifvergleich</text><text x="20" y="385" fill="#6b7f99" font-size="12">💡 Empfehlungen</text><text x="20" y="414" fill="#6b7f99" font-size="12">📌 Termine</text><text x="20" y="443" fill="#6b7f99" font-size="12">🌡 Temperaturen</text><text x="20" y="472" fill="#6b7f99" font-size="12">⚙ Einstellungen</text>
  <!-- Content title -->
  <text x="238" y="108" fill="#dce8f5" font-size="20" font-weight="700">Heizöl (Lieferansicht)</text>
  <line x1="238" y1="120" x2="1072" y2="120" stroke="#4a90e2" stroke-width="1.5"/>
  <rect x="238" y="140" width="834" height="40" rx="8" fill="#1c2636"/><text x="254" y="165" fill="#dce8f5" font-size="12">Tank: Heizöltank Keller (3000 L)   [+ Lieferung]</text><rect x="238" y="196" width="834" height="120" rx="8" fill="#111827"/><text x="254" y="220" fill="#dce8f5" font-size="13" font-weight="600">🛢 Tank-Bestand (modelliert, kalibriert)</text><rect x="254" y="248" width="802" height="20" rx="10" fill="#243044"/><rect x="254" y="248" width="465" height="20" rx="10" fill="#8b5cf6"/><text x="254" y="292" fill="#6b7f99" font-size="11">≈ 1.740 / 3.000 L (58 %) — Sägezahn, kein Zwang auf 0</text><rect x="238" y="332" width="834" height="210" rx="8" fill="#111827"/><text x="254" y="356" fill="#dce8f5" font-size="13" font-weight="600">Lieferungen (Datum · Menge L · Preis · Gesamt € · Lieferant)</text><line x1="254" y1="372" x2="1056" y2="372" stroke="#243044" stroke-width="1"/><line x1="254" y1="398" x2="1056" y2="398" stroke="#243044" stroke-width="1"/><line x1="254" y1="424" x2="1056" y2="424" stroke="#243044" stroke-width="1"/><line x1="254" y1="450" x2="1056" y2="450" stroke="#243044" stroke-width="1"/><line x1="254" y1="476" x2="1056" y2="476" stroke="#243044" stroke-width="1"/>
</svg>